<svg id="Capa_1" enable-background="new 0 0 512 512" height="512" viewBox="0 0 512 512" width="512" xmlns="http://www.w3.org/2000/svg"><g><path d="m139.384 78.311c31.098-31.158 72.524-48.311 116.616-48.311 44.077 0 85.518 17.183 116.689 48.369 5.859 5.859 15.352 5.859 21.211 0 5.859-5.845 5.859-15.352 0-21.211-36.826-36.855-85.796-57.158-137.9-57.158-52.119 0-101.074 20.273-137.856 57.1-5.845 5.874-5.845 15.366.015 21.226 5.859 5.829 15.365 5.844 21.225-.015z"/><path d="m351.464 120.776c5.859-5.845 5.859-15.352 0-21.211-25.488-25.517-59.4-39.565-95.464-39.565s-69.961 14.048-95.435 39.536c-5.859 5.859-5.859 15.366 0 21.211 5.859 5.859 15.352 5.859 21.211 0 39.639-39.668 108.809-39.668 148.477.029 5.859 5.86 15.351 5.86 21.211 0z"/><path d="m202.973 141.973c-5.859 5.859-5.859 15.366 0 21.211 5.859 5.859 15.352 5.859 21.211 0 16.992-16.992 46.641-16.992 63.633 0 5.859 5.859 15.352 5.859 21.211 0 5.859-5.845 5.859-15.352 0-21.211-28.301-28.33-77.755-28.33-106.055 0z"/><path d="m497 301h-90c-2.329 0-4.629.542-6.709 1.582l-56.836 28.418h-174.91l-56.836-28.418c-2.08-1.04-4.38-1.582-6.709-1.582h-90c-8.291 0-15 6.709-15 15v121c0 8.291 6.709 15 15 15h482c8.291 0 15-6.709 15-15v-121c0-8.291-6.709-15-15-15zm-392 90h-30c-8.291 0-15-6.709-15-15s6.709-15 15-15h30c8.291 0 15 6.709 15 15s-6.709 15-15 15zm332 0h-30c-8.291 0-15-6.709-15-15s6.709-15 15-15h30c8.291 0 15 6.709 15 15s-6.709 15-15 15z"/><path d="m125.127 275.746 50.493 25.254h160.76l50.493-25.254c6.211-3.105 13.169-4.746 20.127-4.746h48.027l-35.546-54.32c-2.783-4.175-7.471-6.68-12.48-6.68h-302.001c-5.01 0-9.697 2.505-12.48 6.68l-35.547 54.32h48.027c6.958 0 13.916 1.641 20.127 4.746z"/><path d="m135 512c8.291 0 15-6.709 15-15v-15h-120v15c0 8.291 6.709 15 15 15z"/><path d="m467 512c8.291 0 15-6.709 15-15v-15h-120v15c0 8.291 6.709 15 15 15z"/></g></svg>